The first ever made kiteboarding online dvd video - a Caribbean journey around the most beautiful islands in the Caribbean with Jeremie Tronet and Linn Svendsen.

General
Complete name : G:MoviesKiteboarding VideosFree Style DVD-by J.Tronet.avi
Format : DivX
Format/Info : Hack of AVI
File size : 525 MiB
Duration : 20mn 0s
Overall bit rate : 3 670 Kbps
Video
ID : 0
Format : MPEG-4 Visual
Format settings, BVOP : Yes
Format settings, QPel : No
Format settings, GMC : No warppoints
Format settings, Matrix : Default (H.263)
Codec ID : DX50
Codec ID/Hint : DivX 5
Duration : 20mn 0s
Bit rate : 3 498 Kbps
Width : 1 200 pixels
Height : 672 pixels
Display aspect ratio : 16:9
Frame rate : 29.970 fps
Color space : YUV
Chroma subsampling : 4:2:0
Bit depth : 8 bits
Scan type : Progressive
Bits/(Pixel*Frame) : 0.145
Stream size : 500 MiB (95%)
Title : Main
Writing library : DivX 6.8.0 (UTC 2007-12-04)
Audio
ID : 1
Format : MPEG Audio
Format version : Version 1
Format profile : Layer 3
Mode : Joint stereo
Mode extension : MS Stereo
Codec ID : 55
Codec ID/Hint : MP3
Duration : 20mn 0s
Bit rate mode : Constant
Bit rate : 160 Kbps
Channel(s) : 2 channels
Sampling rate : 48.0 KHz
Stream size : 22.9 MiB (4%)
Alignment : Split accross interleaves
Interleave, duration : 33 ms (1.00 video frame)
Interleave, preload duration : 500 ms
Title : Audio 
Writing library : LAME3.97

Enjoy, comment and Seed !